<svg version="1.1" id="Layer_1" xmlns="http://www.w3.org/2000/svg" xmlns:xlink="http://www.w3.org/1999/xlink" x="0px" y="0px"
	 width="100%" viewBox="0 0 512 512" enable-background="new 0 0 512 512" xml:space="preserve">
<path fill="#000000" opacity="1.000000" stroke="none" 
	d="
M99.468658,513.000000 
	C94.959549,509.248505 89.407013,508.158630 85.062325,504.707611 
	C74.434982,496.266388 68.786865,485.383728 68.748085,472.064606 
	C68.562332,408.279175 68.655960,344.492889 68.671837,280.706909 
	C68.676994,259.962738 86.076714,241.073929 106.674522,239.730408 
	C111.170914,239.437103 110.647690,236.704330 110.648849,233.892761 
	C110.660347,206.080078 110.468201,178.265671 110.716118,150.455154 
	C110.987839,119.973732 117.894295,91.294334 135.125732,65.639389 
	C153.189957,38.744553 177.359512,19.670420 207.871490,8.638074 
	C216.254898,5.606848 224.917496,3.681585 233.771378,1.288806 
	C248.687561,1.000000 263.375122,1.000000 278.531342,1.000000 
	C284.359802,3.717919 290.409424,3.800766 296.074951,5.454926 
	C336.019165,17.117414 366.072205,40.915237 385.781464,77.617783 
	C396.307526,97.219437 401.529266,118.069145 402.554443,140.420319 
	C403.981781,171.540131 402.838165,202.637634 403.250488,233.740417 
	C403.309296,238.175919 404.449280,239.293411 409.037476,239.877930 
	C423.905518,241.772003 439.362274,252.560684 444.128937,271.579010 
	C444.978149,274.967346 445.394409,278.381317 445.391144,281.912354 
	C445.333710,344.362274 445.329132,406.812195 445.361969,469.262146 
	C445.371979,488.282959 436.818848,501.845917 419.759460,510.134308 
	C418.278198,510.854034 416.846802,511.676331 415.196106,512.725464 
	C309.979095,513.000000 204.958206,513.000000 99.468658,513.000000 
M426.654663,287.548096 
	C427.337646,278.845215 425.422119,271.059601 418.844666,264.827271 
	C412.331512,258.655945 404.136383,257.411469 395.793121,257.402161 
	C305.473633,257.301147 215.154007,257.328796 124.834419,257.341156 
	C119.861565,257.341858 114.916580,257.755066 109.950020,258.155670 
	C96.978203,259.201996 87.132683,271.656738 87.198196,283.947723 
	C87.526833,345.603271 87.546951,407.262604 87.200386,468.917969 
	C87.120949,483.049988 99.377220,494.840637 112.953835,494.800293 
	C208.771744,494.515686 304.591461,494.492310 400.409088,494.820312 
	C414.587616,494.868866 426.910461,483.175354 426.816925,468.506042 
	C426.434448,408.517578 426.655579,348.525299 426.654663,287.548096 
M327.148071,99.322609 
	C305.813293,70.202637 277.442627,57.148167 241.561462,63.413235 
	C201.201447,70.460335 173.401917,104.765419 172.468231,145.615067 
	C171.806274,174.576508 172.449051,203.566147 172.248032,232.541382 
	C172.214813,237.329666 173.563553,238.759827 178.400101,238.745270 
	C230.857361,238.587280 283.315399,238.596252 335.772797,238.737381 
	C340.301117,238.749557 341.789398,237.570877 341.755096,232.875000 
	C341.549591,204.732498 341.684082,176.587708 341.640442,148.443771 
	C341.613281,130.931503 336.959259,114.733803 327.148071,99.322609 
M177.588486,47.157543 
	C167.992310,55.424644 159.100800,64.320961 151.956039,74.878273 
	C136.698364,97.423416 129.863373,122.583954 129.458832,149.482376 
	C129.032898,177.802155 129.396759,206.133377 129.306946,234.459259 
	C129.296188,237.852478 130.745789,238.775040 133.834244,238.687958 
	C138.995514,238.542465 144.168213,238.518997 149.327621,238.694183 
	C152.581467,238.804672 153.751358,237.566406 153.696899,234.321487 
	C153.551559,225.659470 153.500244,216.990326 153.678131,208.329483 
	C154.180420,183.874710 152.616333,159.404419 154.566696,134.955444 
	C156.311783,113.079597 165.038361,94.096916 179.175247,77.881149 
	C198.830536,55.335491 224.323776,43.926216 254.119705,42.769428 
	C267.592316,42.246372 280.706390,44.797230 293.509186,49.509373 
	C334.203064,64.487000 359.683411,102.496674 360.262695,145.008118 
	C360.664490,174.495255 360.403198,203.992416 360.282135,233.484467 
	C360.266418,237.320145 361.277069,238.982513 365.352386,238.710754 
	C369.831268,238.412064 374.368256,238.362869 378.838226,238.722824 
	C383.583527,239.104950 384.772369,237.179626 384.741760,232.685028 
	C384.567230,207.026031 384.881775,181.362366 384.554108,155.706360 
	C384.412750,144.639496 383.945953,133.530060 381.742126,122.580727 
	C374.711060,87.647507 356.419189,60.031929 326.926086,40.327293 
	C300.219208,22.484179 270.497192,15.892020 238.616898,20.464149 
	C216.141418,23.687483 196.051147,32.767300 177.588486,47.157543 
z"/>
<path fill="#000000" opacity="1.000000" stroke="none" 
	d="
M221.935043,376.944763 
	C211.012817,360.181061 210.153061,343.138611 220.813721,326.660278 
	C233.208466,307.501526 258.207672,302.104828 277.985962,312.826569 
	C301.454651,325.548889 306.243835,354.686157 293.796173,374.172852 
	C291.846924,377.224365 289.748474,380.497070 286.919800,382.584534 
	C283.866028,384.838104 283.272400,387.307617 283.310516,390.652069 
	C283.420532,400.310028 283.370392,409.970184 283.342438,419.629364 
	C283.300262,434.211151 271.806885,445.344299 256.840637,445.338348 
	C242.254700,445.332550 230.721924,434.085175 230.670166,419.778717 
	C230.640656,411.618439 230.612915,403.457458 230.686005,395.297729 
	C230.733261,390.021973 231.516968,384.642487 225.794662,381.289246 
	C224.306793,380.417358 223.373444,378.599152 221.935043,376.944763 
M249.350250,406.492920 
	C249.350403,409.820557 249.337433,413.148224 249.353546,416.475800 
	C249.382950,422.550232 252.582809,426.700226 257.154633,426.619934 
	C261.431488,426.544800 264.626160,422.357269 264.645142,416.638611 
	C264.682709,405.324829 264.820160,394.007690 264.594177,382.698395 
	C264.491364,377.554108 266.169830,374.120026 270.561401,371.097260 
	C281.334381,363.682068 284.476105,349.930542 278.521088,338.960266 
	C273.026154,328.837555 260.149902,323.744843 249.469391,327.436646 
	C239.713943,330.808594 233.979797,337.943726 232.627441,347.791046 
	C231.280182,357.601318 235.625793,365.672974 243.787277,371.218475 
	C247.835205,373.968933 249.506744,377.277527 249.397537,382.037323 
	C249.218216,389.853088 249.350082,397.675995 249.350250,406.492920 
z"/>
</svg>