<svg version="1.1" id="Layer_1" xmlns="http://www.w3.org/2000/svg" xmlns:xlink="http://www.w3.org/1999/xlink" x="0px" y="0px"
	 width="100%" viewBox="0 0 512 512" enable-background="new 0 0 512 512" xml:space="preserve">
<path fill="#000000" opacity="1.000000" stroke="none" 
	d="
M234.000031,138.735397 
	C295.999664,138.736099 357.499420,138.669373 418.998840,138.787628 
	C433.596710,138.815704 445.672272,144.093124 453.106598,157.462738 
	C455.331390,161.463776 456.324524,165.831284 456.325012,170.410049 
	C456.331665,234.076324 456.378876,297.742645 456.307617,361.408844 
	C456.288666,378.342590 441.605682,392.057983 422.702271,393.188019 
	C422.037170,393.227783 421.369690,393.244354 420.703339,393.244415 
	C310.537384,393.255463 200.371277,393.347931 90.205620,393.166901 
	C76.378143,393.144165 65.036407,387.360321 58.012108,374.746735 
	C55.778069,370.735077 54.679352,366.410126 54.678413,361.835114 
	C54.665321,298.002167 54.634785,234.169205 54.696434,170.336334 
	C54.709377,156.935898 64.603737,144.731628 78.227501,140.772247 
	C83.054146,139.369507 87.943634,138.698547 93.000809,138.705200 
	C139.833817,138.766739 186.666931,138.738098 234.000031,138.735397 
M335.324890,231.821014 
	C360.948700,208.699631 386.572540,185.578247 413.036682,161.698624 
	C307.454712,161.698624 203.313980,161.698624 98.063660,161.698624 
	C103.806610,166.944824 108.678970,171.451370 113.610611,175.892090 
	C157.194580,215.137543 200.800629,254.358475 244.369736,293.620422 
	C252.148880,300.630524 258.934723,300.613190 266.819153,293.498291 
	C289.455536,273.071289 312.133636,252.690598 335.324890,231.821014 
M223.499985,370.768677 
	C286.212982,370.768677 348.925964,370.768677 411.638947,370.768677 
	C411.989777,370.155060 412.340576,369.541443 412.691406,368.927826 
	C411.207275,367.892120 409.593903,367.000183 408.258057,365.799530 
	C378.771545,339.297424 349.322021,312.754150 319.848175,286.237976 
	C314.717468,281.622131 314.696564,281.678833 309.440247,286.455811 
	C300.689331,294.408691 292.111877,302.567047 283.112000,310.228424 
	C265.436951,325.274750 243.794327,324.760742 226.633392,309.225708 
	C217.864334,301.287476 209.023102,293.425903 200.389618,285.342621 
	C197.399689,282.543243 195.363403,282.313904 192.111557,285.267120 
	C163.383148,311.357483 134.475021,337.249878 105.659302,363.244324 
	C103.364120,365.314819 101.362740,367.710968 98.451180,370.768066 
	C140.370346,370.768066 181.435165,370.768066 223.499985,370.768677 
M431.794861,295.500000 
	C431.794861,256.165649 431.794861,216.831314 431.794861,176.368744 
	C424.740295,182.740936 418.711884,188.199509 412.669098,193.642181 
	C387.565979,216.252228 362.434113,238.830521 337.373566,261.487671 
	C332.464752,265.925690 332.535095,266.123230 337.361176,270.480133 
	C367.631378,297.807587 397.925598,325.108429 428.226318,352.402100 
	C429.030090,353.126099 429.694275,354.327026 431.793640,353.543793 
	C431.793640,334.677155 431.793640,315.588593 431.794861,295.500000 
M83.435600,351.803558 
	C115.037521,323.311035 146.639450,294.818542 178.679428,265.931091 
	C145.500259,236.051987 112.822861,206.624741 79.574188,176.683044 
	C79.574188,236.324203 79.574188,294.963165 79.574188,353.652740 
	C81.279640,353.910248 82.010193,352.878052 83.435600,351.803558 
z"/>
</svg>